# xmcd CD database file
#
# Track frame offsets:
#	150
#	11277
#	24780
#	38134
#	51746
#	68456
#	78232
#	90876
#	104286
#	129158
#	140781
#	153490
#	166206
#	178917
#	190961
#	204671
#	217998
#	237361
#	249002
#	270015
#
# Disc length: 3750 seconds
#
# Revision: 1
# Processed by: cddbd v1.5.2PL0 Copyright (c) Steve Scherf et al.
# Submitted via: CDex 1.70beta2
#
DISCID=f80ea414
DTITLE=Compilation - Essential Blues CD1 (The Roots Of The Blues)
DYEAR=2005
DGENRE=Blues
TTITLE0=John Lee Hooker - Boom Boom
TTITLE1=Robert Johnson - Sweet Home Chicago
TTITLE2=Skip James - Devil Got My Woman
TTITLE3=JB. Lenoir - Alabama Blues
TTITLE4=Muddy Waters - Sad Sad Day
TTITLE5=Buddy Guy - Firrst Time I Met The Blues
TTITLE6=Blind Willie McTell - You Was Born To Die
TTITLE7=Frank Edwards - My Baby's Gone
TTITLE8=Neal Pattman - Shortnin' Bread
TTITLE9=Mississipi Fred McDowell - Good Morning Little School Girl
TTITLE10=Howlin' Wolf - I've Got A Woman
TTITLE11=Lonnie Johnson - Blues In G
TTITLE12=Ivory Joe Hunter - Landlord Blues
TTITLE13=Django Reinhardt - St Louis Blues
TTITLE14=Big Joe Turner - Back Breaking Blues
TTITLE15=Big Joe Williams - Meet Me Around The Corner
TTITLE16=Guitar Gabriel - Came So Far
TTITLE17=Samuel Turner Stevens - Railroadin' and Gamblin'
TTITLE18=Sweet Betty - Coffee Drinkin' Blues
TTITLE19=Jack OWens - Keep On Grumblin'
EXTD=YEAR: 2005
EXTT0=
EXTT1=
EXTT2=
EXTT3=
EXTT4=
EXTT5=
EXTT6=
EXTT7=
EXTT8=
EXTT9=
EXTT10=
EXTT11=
EXTT12=
EXTT13=
EXTT14=
EXTT15=
EXTT16=
EXTT17=
EXTT18=
EXTT19=
PLAYORDER=
